<?xml version="1.0" encoding="utf-8"?>
<!-- Generator: Adobe Illustrator 13.0.0, SVG Export Plug-In . SVG Version: 6.00 Build 14576)  -->
<!DOCTYPE svg PUBLIC "-//W3C//DTD SVG 1.0//EN" "http://www.w3.org/TR/2001/REC-SVG-20010904/DTD/svg10.dtd">
<svg version="1.0" id="Layer_1" xmlns="http://www.w3.org/2000/svg" xmlns:xlink="http://www.w3.org/1999/xlink" x="0px" y="0px"
	 width="800px" height="600px" viewBox="0 0 800 600" enable-background="new 0 0 800 600" xml:space="preserve">
<path d="M399.947,477.27c-0.005,0-0.007,0-0.009,0h-0.169c-47.677,0-92.417-18.492-125.975-52.069
	c-33.601-33.586-52.093-78.233-52.066-125.71c-0.027-47.465,18.467-92.112,52.074-125.698
	c33.552-33.569,78.163-52.063,125.607-52.063h0.182c47.443,0,92.054,18.495,125.615,52.072
	c33.601,33.582,52.093,78.36,52.063,126.078c0.021,47.219-18.469,91.738-52.069,125.326
	C491.642,458.777,447.157,477.27,399.947,477.27L399.947,477.27z M364.696,390.871c11.086,4.208,22.964,6.387,35.187,6.397
	c25.864-0.018,50.292-10.188,68.751-28.638c18.443-18.457,28.616-42.886,28.634-68.78c-0.011-12.204-2.189-24.073-6.395-35.158
	L364.696,390.871L364.696,390.871z M399.502,201.729c-26.129,0.021-50.684,10.194-69.139,28.64
	c-18.446,18.452-28.617,43.01-28.634,69.146c0.008,12.061,2.177,23.815,6.367,34.819l126.237-126.235
	C423.332,203.908,411.574,201.738,399.502,201.729L399.502,201.729z"/>
<path fill="#F42762" d="M511.061,187.939c-30.755-30.771-71.252-46.234-111.561-46.211c-40.311-0.023-80.807,15.442-111.561,46.211
	c-30.771,30.752-46.234,71.25-46.211,111.561c-0.023,40.309,15.442,80.804,46.211,111.561
	c30.854,30.87,71.489,46.208,111.829,46.209h0.099c40.246,0.019,80.567-15.57,111.194-46.209
	c30.637-30.629,46.228-70.946,46.209-111.194C557.295,259.495,541.959,218.821,511.061,187.939z M316.223,216.223
	c23.048-23.035,53.069-34.474,83.277-34.495c23.88,0.017,47.64,7.176,67.935,21.551L303.28,367.434
	c-14.376-20.296-21.535-44.057-21.552-67.934C281.75,269.292,293.188,239.269,316.223,216.223z M482.774,382.776
	c-22.989,22.975-52.883,34.471-82.908,34.492c-24.04-0.021-47.926-7.15-68.296-21.556l164.142-164.142
	c14.406,20.371,21.535,44.255,21.556,68.295C517.247,329.888,505.749,359.785,482.774,382.776z"/>
</svg>
